# xmcd
#
# Track frame offsets: 
#        150
#        14045
#        29943
#        44273
#        57534
#        69267
#        85293
#        100191
#        117418
#        128739
#
# Disc length: 1933 seconds
#
# Revision: 1
# Processed by: cddbd v1.5.2PL0 Copyright (c) Steve Scherf et al.
# Submitted via: ExactAudioCopy v0.95b4
#
DISCID=8f078b0a
DTITLE=อัศวิน สีทอง - น้าห่วงหนู
DYEAR=1900
DGENRE=Country
TTITLE0=เชื่อพี่หิดตะน้อง
TTITLE1=น้าห่วงหนู
TTITLE2=คนรักคนร้าย
TTITLE3=สะออนแท้ แท้
TTITLE4=เช้งวัป
TTITLE5=ซอยไหนกันแน่
TTITLE6=เกือบเสียท่า
TTITLE7=คิดถึงจังฮู้
TTITLE8=สาวจ้าอย่าแพง
TTITLE9=เสียงจากอัศวิน
EXTD=
EXTT0=
EXTT1=
EXTT2=
EXTT3=
EXTT4=
EXTT5=
EXTT6=
EXTT7=
EXTT8=
EXTT9=
PLAYORDER=
